<svg xmlns="http://www.w3.org/2000/svg" viewBox="0 0 100 100" enable-background="new 0 0 100 100"><style type="text/css">.st0{fill:#83CEC4;} .st1{fill:#E9E8E9;} .st2{fill:#D5ECE0;} .st3{fill:#ADDCCB;} .st4{fill:#6FC9C4;} .st5{fill:#45C1C3;} .st6{fill:#3BABAD;}</style><path class="st0" d="M50 12.5h-18.3l-6.4 7.9v59.2l6.4 7.9h36.6l6.4-7.9v-59.2l-6.4-7.9z"/><path class="st1" d="M68.3 12.5h-36.6l-6.4 7.9v59.2l6.4 7.9h36.6l6.4-7.9v-59.2z"/><path class="st0" d="M38 25.8h24.1v48.5h-24.1z"/><path class="st2" d="M25.3 20.4l12.7 5.4-6.3-13.3z"/><path class="st3" d="M38 25.8l-6.3-13.3h36.6l-6.3 13.3zM38 74.2v-48.4l-12.7-5.4v59.2z"/><path class="st4" d="M68.3 12.5l-6.3 13.3 12.7-5.4zM38 74.2l-6.3 13.3-6.4-7.9z"/><path class="st5" d="M38 74.2l-6.3 13.3h36.6l-6.3-13.3zM62 25.8v48.4l12.7 5.4v-59.2z"/><path class="st6" d="M68.3 87.5l6.4-7.9-12.7-5.4z"/></svg>