<svg xmlns="http://www.w3.org/2000/svg" viewBox="0 0 100 100" enable-background="new 0 0 100 100"><style type="text/css">.st0{fill:#FFD240;} .st1{fill:#FBC041;} .st2{fill:#FBB541;} .st3{fill:#F89C40;} .st4{fill:#FEE176;}</style><path class="st0" d="M28.4 12.5l-21.7 37.5 21.7 37.5h43.3l21.6-37.5-21.6-37.5zM39.4 68.4l-10.6-18.4 10.6-18.4h21.2l10.6 18.4-10.6 18.4z"/><path class="st1" d="M28.4 12.5l11 19.1h21.2l11.1-19.1z"/><path class="st2" d="M60.6 31.6l11.1-19.1 21.6 37.5h-22.1z"/><path class="st3" d="M93.3 50h-22.1l-10.6 18.4 11.1 19.1z"/><path class="st2" d="M39.4 68.4h21.2l11.1 19.1h-43.3z"/><path class="st1" d="M6.7 50l21.7 37.5 11-19.1-10.6-18.4z"/><path class="st4" d="M6.7 50l21.7-37.5 11 19.1-10.6 18.4z"/></svg>