<svg xmlns="http://www.w3.org/2000/svg" viewBox="0 0 100 100" enable-background="new 0 0 100 100"><style type="text/css">.st0{fill:#CB9BBE;} .st1{fill:#A7809E;} .st2{fill:#D8A5CA;} .st3{fill:#AD85A4;} .st4{fill:#C596B9;} .st5{fill:#BB8EB0;} .st6{fill:#977591;}</style><path class="st0" d="M82.5 68.8v-37.6l-32.5-18.7-32.5 18.7v37.6l32.5 18.7z"/><path class="st1" d="M50 12.5l-32.5 18.7v37.6l32.5 18.7 32.5-18.7v-37.6z"/><path class="st2" d="M50 12.5l-15.6 18.7h31.2z"/><path class="st3" d="M50 87.5l15.6-18.7h-31.2z"/><path class="st0" d="M34.4 31.2h31.2v37.5h-31.2z"/><path class="st4" d="M17.5 31.2h16.9l15.6-18.7zM50 12.5l15.6 18.7h16.9z"/><path class="st5" d="M17.5 31.2h16.9v37.5h-16.9zM65.6 31.2h16.8v37.5h-16.8z"/><path class="st6" d="M65.6 68.8l-15.6 18.7 32.5-18.7zM34.4 68.8l15.6 18.7-32.5-18.7z"/></svg>